<svg version="1.1" id="Layer_1" xmlns="http://www.w3.org/2000/svg" xmlns:xlink="http://www.w3.org/1999/xlink" x="0px" y="0px"
	 width="100%" viewBox="0 0 1024 1024" enable-background="new 0 0 1024 1024" xml:space="preserve">
<path fill="#000000" opacity="1.000000" stroke="none" 
	d="
M225.959076,543.079285 
	C237.077835,526.069580 252.600662,517.474365 272.462280,516.749451 
	C275.812897,516.627197 276.763153,515.172485 276.717438,512.120361 
	C276.615143,505.288757 276.696106,498.454468 276.696350,491.621277 
	C276.697693,457.288666 276.595856,422.955597 276.752655,388.623688 
	C276.806580,376.811188 280.752930,366.793884 291.751343,360.634369 
	C308.579132,351.210175 330.216980,362.538055 332.442017,381.703888 
	C333.195099,388.190857 333.282776,394.632416 333.287354,401.107483 
	C333.313110,437.606720 333.379730,474.106354 333.199585,510.604706 
	C333.175812,515.419556 334.594940,516.804749 339.406433,516.799500 
	C454.070557,516.674927 568.734924,516.666504 683.398987,516.802307 
	C688.599060,516.808472 689.818604,515.098083 689.798279,510.190247 
	C689.629578,469.525146 689.681824,428.858978 689.714966,388.193207 
	C689.726318,374.248749 696.211914,363.267365 707.796753,359.218811 
	C725.385254,353.072266 742.148743,362.602539 745.450256,380.269989 
	C746.162964,384.084015 746.325195,387.850128 746.326782,391.669434 
	C746.342896,431.168579 746.430054,470.668060 746.258301,510.166443 
	C746.237000,515.065430 747.377991,516.786865 752.597107,516.810974 
	C777.782715,516.927429 801.825378,539.447937 804.468750,564.422974 
	C805.191345,571.249634 805.289062,578.027222 805.295776,584.835938 
	C805.335388,625.168457 805.313538,665.500916 805.317932,705.833435 
	C805.321045,734.760315 785.647827,758.256104 757.325928,763.137573 
	C757.161926,763.165771 756.997009,763.188354 756.832275,763.212036 
	C746.433228,764.710999 746.364746,764.710938 746.356201,775.547974 
	C746.353638,778.767029 745.821472,781.868164 744.965698,784.898010 
	C742.337097,794.205383 734.305847,800.292236 724.598328,800.324707 
	C707.265564,800.382629 689.932373,800.369507 672.599487,800.330505 
	C660.876770,800.304138 651.952087,792.269165 650.730408,780.590088 
	C650.300537,776.480042 649.556213,772.393127 650.480835,768.181946 
	C651.206421,764.877380 649.487000,763.166199 646.011719,763.325134 
	C644.182495,763.408752 642.345886,763.327698 640.512634,763.327637 
	C553.681152,763.326843 466.849609,763.326782 380.018097,763.326721 
	C372.630371,763.326721 372.999176,763.340210 372.724060,770.880127 
	C372.490356,777.284607 372.619598,783.890991 369.044830,789.753357 
	C364.917114,796.522583 359.259247,800.404602 351.084808,800.366394 
	C334.085571,800.286926 317.085571,800.372620 300.086029,800.334778 
	C287.392883,800.306519 278.368195,791.714478 277.680328,779.017395 
	C277.509338,775.861816 277.724915,772.683716 277.518646,769.531921 
	C277.285980,765.976135 276.424103,763.400024 271.689240,763.274658 
	C245.875015,762.590881 223.487244,743.165955 218.740845,717.763489 
	C217.973938,713.659119 217.619644,709.549438 217.624481,705.364014 
	C217.674164,662.364990 217.775833,619.365295 217.578369,576.367126 
	C217.524185,564.567444 219.915176,553.608032 225.959076,543.079285 
M236.344193,648.499939 
	C236.346725,666.832947 236.216293,685.167175 236.385559,703.498657 
	C236.595108,726.192932 254.270767,743.651062 276.846100,743.652771 
	C433.342194,743.664246 589.838257,743.661804 746.334351,743.637695 
	C748.647644,743.637329 751.018311,743.567444 753.265320,743.081787 
	C773.898804,738.622925 785.996826,723.779419 786.052856,702.593201 
	C786.155518,663.761169 786.098694,624.928711 786.137573,586.096436 
	C786.143066,580.600037 786.342346,575.111084 785.694031,569.625183 
	C783.586670,551.793884 767.908752,537.405212 749.956787,537.398865 
	C590.627502,537.342224 431.298157,537.363770 271.968842,537.352478 
	C267.904877,537.352234 264.033325,538.225220 260.366028,539.886658 
	C244.427704,547.107300 236.589325,559.763367 236.409698,577.002258 
	C236.164856,600.499146 236.346146,624.000488 236.344193,648.499939 
M721.269470,516.719116 
	C726.405212,517.526978 727.940552,515.261597 727.676147,510.252716 
	C727.193787,501.113953 726.943665,491.936401 727.187500,482.790771 
	C727.981934,452.979309 727.334167,423.166351 727.597656,393.355927 
	C727.621460,390.669373 727.388550,388.054321 726.718933,385.455505 
	C725.524719,380.820953 722.100220,378.047821 717.838745,378.343231 
	C713.521240,378.642487 710.014526,381.803741 709.426270,386.209869 
	C709.141479,388.342499 709.243042,390.532440 709.242432,392.696442 
	C709.232056,430.341797 709.187500,467.987244 709.256592,505.632446 
	C709.280212,518.513489 707.435120,516.518799 721.269470,516.719116 
M296.386810,385.366058 
	C296.242828,387.190277 295.972870,389.014557 295.973480,390.838745 
	C295.985901,428.502838 295.919220,466.167542 296.120117,503.830780 
	C296.200928,518.979980 293.284271,516.421448 309.461151,516.741272 
	C312.712341,516.805481 313.947815,515.529175 313.860474,512.328308 
	C313.724152,507.332489 313.843201,502.329895 313.840912,497.330170 
	C313.824249,461.165649 313.838348,425.001038 313.751434,388.836700 
	C313.737152,382.899902 311.103760,379.403229 306.286957,378.577789 
	C301.419586,377.743652 298.405914,380.299194 296.386810,385.366058 
M669.375977,774.820496 
	C669.920349,778.842346 672.461731,780.548096 676.273682,780.553955 
	C690.425354,780.575623 704.579895,780.702515 718.727661,780.457397 
	C725.969360,780.331970 727.956238,777.643311 726.974121,770.715576 
	C726.387634,766.578552 722.553833,763.419922 717.705994,763.390381 
	C705.052795,763.313232 692.398865,763.324768 679.745300,763.348755 
	C668.704285,763.369629 669.256592,762.294128 669.375977,774.820496 
M326.499664,763.345032 
	C319.839050,763.345886 313.178467,763.341736 306.517853,763.348694 
	C297.071960,763.358643 295.384430,765.242004 296.357056,774.571045 
	C296.741455,778.258118 298.645020,780.550781 302.416656,780.525879 
	C317.563751,780.426147 332.710205,780.204224 347.856171,779.977173 
	C351.042419,779.929321 352.611389,778.092773 352.992889,774.981384 
	C353.674652,769.421509 348.698425,763.528503 342.984589,763.405701 
	C337.824768,763.294739 332.661194,763.358948 326.499664,763.345032 
z"/>
<path fill="#000000" opacity="1.000000" stroke="none" 
	d="
M564.506226,217.637131 
	C540.070251,211.856918 515.586609,210.685272 491.178162,212.573456 
	C453.627655,215.478302 418.577209,227.041199 386.242889,246.577560 
	C365.164551,259.313080 345.865723,274.217163 329.174500,292.411438 
	C324.180786,297.854828 318.159180,301.011505 310.477936,299.339355 
	C299.470154,296.943115 294.287659,285.322876 300.131561,275.678345 
	C305.642975,266.582489 313.703094,259.679871 321.487335,252.695129 
	C346.586365,230.173950 374.279388,211.551926 405.517578,198.533432 
	C430.706482,188.035980 456.857788,181.276154 484.062378,178.601501 
	C540.950989,173.008423 594.323303,184.663239 644.242126,211.955963 
	C671.288940,226.743530 695.473572,245.536774 716.458923,268.258331 
	C720.457458,272.587646 723.804260,277.049225 723.510193,283.631470 
	C723.238953,289.700928 721.204773,294.455261 715.942627,297.291870 
	C710.329529,300.317749 704.337585,300.537170 698.853821,296.932404 
	C695.969971,295.036652 693.473938,292.475128 691.039490,289.982971 
	C667.013062,265.386230 639.374146,245.929688 608.016174,231.852112 
	C594.170105,225.636185 579.754761,220.993698 564.506226,217.637131 
z"/>
<path fill="#000000" opacity="1.000000" stroke="none" 
	d="
M357.616943,327.989685 
	C364.327148,316.726105 373.918671,308.621002 383.534882,300.720093 
	C410.338409,278.697510 440.948639,264.194122 475.218353,259.107910 
	C541.278137,249.303558 600.397034,264.641541 650.240112,310.624481 
	C654.272156,314.344238 658.123230,318.302032 661.712097,322.448883 
	C665.513489,326.841156 668.022095,331.986816 666.956787,338.009827 
	C665.869873,344.155518 662.619690,349.014496 656.346008,350.704224 
	C649.497559,352.548767 643.338318,351.239807 638.070740,345.851349 
	C625.103882,332.586853 611.013184,320.657166 594.886353,311.327393 
	C574.741089,299.672852 553.196228,292.506927 529.928223,290.175232 
	C475.682312,284.739258 429.787872,302.213867 391.054016,339.895233 
	C389.024139,341.869934 386.998138,343.848633 384.964264,345.819214 
	C378.055328,352.513123 370.317627,353.816467 363.196167,349.490265 
	C356.475891,345.407715 354.376923,337.635498 357.616943,327.989685 
z"/>
<path fill="#000000" opacity="1.000000" stroke="none" 
	d="
M413.742249,386.854248 
	C413.779694,380.620422 416.069855,375.771759 420.115906,371.713165 
	C439.669830,352.098572 462.995697,339.509460 490.516968,336.001312 
	C531.682495,330.753906 568.886963,339.786530 600.034058,368.692169 
	C605.047485,373.344818 609.329285,378.197815 609.357544,385.595154 
	C609.383850,392.492401 606.329163,397.507294 600.262085,400.445740 
	C594.145447,403.408173 588.181396,402.408997 582.952026,398.211334 
	C578.802246,394.880157 575.039795,391.070343 570.943848,387.667419 
	C533.219482,356.325806 477.514526,359.706146 443.922821,395.332001 
	C435.216339,404.565704 423.791382,404.659119 416.780212,395.621002 
	C414.848511,393.130859 414.263306,390.243469 413.742249,386.854248 
z"/>
<path fill="#000000" opacity="1.000000" stroke="none" 
	d="
M506.481873,413.794067 
	C525.851868,413.199158 537.729431,421.705444 540.950928,438.107025 
	C544.416992,455.754578 530.020752,472.538208 512.694275,472.668701 
	C494.000183,472.809540 483.308258,458.647980 481.827881,445.445862 
	C480.281586,431.656342 490.377380,418.352234 506.481873,413.794067 
z"/>
<path fill="#000000" opacity="1.000000" stroke="none" 
	d="
M527.307861,696.585571 
	C509.011566,700.388367 492.133820,698.700623 477.314911,686.958008 
	C472.546112,683.179199 468.879120,678.440613 467.163605,672.449951 
	C465.729767,667.442810 467.737610,662.493103 471.922638,660.534851 
	C476.388641,658.445129 481.355621,660.198792 484.303162,664.906067 
	C491.159760,675.856079 503.543976,681.276550 516.287109,678.928833 
	C518.565063,678.509155 520.896729,678.329895 523.139160,677.777832 
	C530.063477,676.073120 535.516785,672.564087 538.943542,665.916077 
	C541.884583,660.210327 547.024536,658.340637 551.691101,660.463257 
	C556.418762,662.613586 558.470764,668.384155 555.980713,674.142578 
	C550.599121,686.588013 540.476990,693.258850 527.307861,696.585571 
z"/>
<path fill="#000000" opacity="1.000000" stroke="none" 
	d="
M574.754150,628.154968 
	C575.442017,624.987610 575.868347,622.172424 576.786316,619.527893 
	C580.264465,609.507568 589.623108,603.119385 599.693848,603.698486 
	C609.714478,604.274658 618.766296,612.255615 621.137817,622.326477 
	C624.792297,637.845337 614.061401,651.742859 603.040344,653.639160 
	C590.868469,655.733459 577.900024,647.659912 575.740784,635.463135 
	C575.336914,633.181763 575.056030,630.878601 574.754150,628.154968 
z"/>
<path fill="#000000" opacity="1.000000" stroke="none" 
	d="
M435.670654,605.976929 
	C450.424377,614.294006 453.959045,633.359863 443.424469,646.093628 
	C436.723450,654.193542 424.304901,656.516296 415.355469,651.343628 
	C405.163452,645.452759 400.226837,631.694458 404.273285,620.457520 
	C409.391754,606.243530 421.635437,600.466797 435.670654,605.976929 
z"/>
</svg>